<svg height="512pt" viewBox="0 0 512 512" width="512pt" xmlns="http://www.w3.org/2000/svg"><g fill="#90a4ae"><path d="m21.332031 170.667969c-11.796875 0-21.332031-9.558594-21.332031-21.335938v-85.332031c0-35.285156 28.714844-64 64-64h85.332031c11.796875 0 21.335938 9.558594 21.335938 21.332031 0 11.777344-9.539063 21.335938-21.335938 21.335938h-85.332031c-11.777344 0-21.332031 9.578125-21.332031 21.332031v85.332031c0 11.777344-9.539063 21.335938-21.335938 21.335938zm0 0"/><path d="m448 512h-85.332031c-11.796875 0-21.335938-9.558594-21.335938-21.332031 0-11.777344 9.539063-21.335938 21.335938-21.335938h85.332031c11.777344 0 21.332031-9.578125 21.332031-21.332031v-85.332031c0-11.777344 9.539063-21.335938 21.335938-21.335938s21.332031 9.558594 21.332031 21.335938v85.332031c0 35.285156-28.714844 64-64 64zm0 0"/><path d="m149.332031 512h-85.332031c-35.285156 0-64-28.714844-64-64v-85.332031c0-11.777344 9.535156-21.335938 21.332031-21.335938s21.335938 9.558594 21.335938 21.335938v85.332031c0 11.753906 9.554687 21.332031 21.332031 21.332031h85.332031c11.796875 0 21.335938 9.558594 21.335938 21.335938 0 11.773437-9.539063 21.332031-21.335938 21.332031zm0 0"/><path d="m490.667969 170.667969c-11.796875 0-21.335938-9.558594-21.335938-21.335938v-85.332031c0-11.753906-9.554687-21.332031-21.332031-21.332031h-85.332031c-11.796875 0-21.335938-9.558594-21.335938-21.335938 0-11.773437 9.539063-21.332031 21.335938-21.332031h85.332031c35.285156 0 64 28.714844 64 64v85.332031c0 11.777344-9.535156 21.335938-21.332031 21.335938zm0 0"/></g><path d="m346.667969 106.667969h-181.335938c-32.363281 0-58.664062 26.300781-58.664062 58.664062v181.335938c0 32.363281 26.300781 58.664062 58.664062 58.664062h181.335938c32.363281 0 58.664062-26.300781 58.664062-58.664062v-181.335938c0-32.363281-26.300781-58.664062-58.664062-58.664062zm0 0" fill="#42a5f5"/></svg>