<svg height="512pt" viewBox="0 -43 512 512" width="512pt" xmlns="http://www.w3.org/2000/svg"><path d="m451.667969 410.667969h-391.335938c-24.46875 0-44.332031-19.839844-44.332031-44.332031v-306.003907c0-24.46875 19.839844-44.332031 44.332031-44.332031h391.359375c24.46875 0 44.328125 19.839844 44.328125 44.332031v306.023438c-.019531 24.472656-19.859375 44.3125-44.351562 44.3125zm0 0" fill="#00bcd4"/><path d="m352 213.332031c0 53.019531-42.980469 96-96 96s-96-42.980469-96-96 42.980469-96 96-96 96 42.980469 96 96zm0 0" fill="#fafafa"/><path d="m256 341.332031c-70.59375 0-128-57.40625-128-128 0-70.589843 57.40625-128 128-128s128 57.410157 128 128c0 70.59375-57.40625 128-128 128zm0-224c-52.929688 0-96 43.074219-96 96 0 52.929688 43.070312 96 96 96s96-43.070312 96-96c0-52.925781-43.070312-96-96-96zm0 0"/><path d="m335.1875 308.523438c-4.09375 0-8.191406-1.558594-11.304688-4.695313l-158.378906-158.378906c-6.25-6.25-6.25-16.382813 0-22.632813s16.382813-6.25 22.632813 0l158.378906 158.398438c6.253906 6.25 6.253906 16.386718 0 22.636718-3.132813 3.113282-7.230469 4.671876-11.328125 4.671876zm0 0"/><path d="m16 106.667969c-8.832031 0-16-7.167969-16-16v-32c0-33.984375 22.441406-58.667969 53.332031-58.667969h37.335938c8.832031 0 16 7.167969 16 16s-7.167969 16-16 16h-37.335938c-20.308593 0-21.332031 22.230469-21.332031 26.667969v32c0 8.832031-7.167969 16-16 16zm0 0"/><path d="m496 106.667969c-8.832031 0-16-7.167969-16-16v-32c0-14.699219-11.96875-26.667969-26.667969-26.667969h-32c-8.832031 0-16-7.167969-16-16s7.167969-16 16-16h32c32.363281 0 58.667969 26.304688 58.667969 58.667969v32c0 8.832031-7.167969 16-16 16zm0 0"/><path d="m90.667969 426.667969h-37.335938c-30.890625 0-53.332031-24.683594-53.332031-58.667969v-32c0-8.832031 7.167969-16 16-16s16 7.167969 16 16v32c0 4.4375 1.023438 26.667969 21.332031 26.667969h37.335938c8.832031 0 16 7.167969 16 16s-7.167969 16-16 16zm0 0"/><path d="m453.332031 426.667969h-32c-8.832031 0-16-7.167969-16-16s7.167969-16 16-16h32c14.699219 0 26.667969-11.96875 26.667969-26.667969v-32c0-8.832031 7.167969-16 16-16s16 7.167969 16 16v32c0 32.363281-26.304688 58.667969-58.667969 58.667969zm0 0"/></svg>